<svg width="24" height="24" viewBox="0 0 24 24" fill="none" xmlns="http://www.w3.org/2000/svg">
<g clip-path="url(#clip0_404_450)">
<path d="M12.0199 5.80371C8.56589 5.80371 5.75525 8.58413 5.75525 12.002C5.75525 15.4196 8.5655 18.2 12.0199 18.2C15.474 18.2 18.2846 15.4196 18.2846 12.002C18.2846 8.58413 15.474 5.80371 12.0199 5.80371ZM12.0199 15.9181C9.82362 15.9181 8.03713 14.1611 8.03713 12.002C8.03713 9.84264 9.82362 8.08599 12.0199 8.08599C14.2158 8.08599 16.0027 9.84264 16.0027 12.002C16.0027 14.1615 14.2162 15.9181 12.0199 15.9181Z" fill="#1E2B4C"/>
<path d="M17.0919 0H6.90806C3.09917 0 0 3.09877 0 6.90806V17.1854C0 20.9943 3.09877 24.0934 6.90806 24.0934H17.0919C20.9012 24.0934 24 20.9943 24 17.1854V6.90806C24 3.09917 20.9012 0 17.0919 0ZM21.7138 17.1854C21.7138 19.7338 19.6404 21.8072 17.0919 21.8072H6.90806C4.35964 21.8072 2.2862 19.7338 2.2862 17.1854V6.90806C2.2862 4.35964 4.35964 2.2862 6.90806 2.2862H17.0919C19.6404 2.2862 21.7138 4.35964 21.7138 6.90806V17.1854Z" fill="#1E2B4C"/>
<path d="M18.396 7.02518C19.2101 7.02518 19.87 6.36524 19.87 5.55117C19.87 4.73709 19.2101 4.07715 18.396 4.07715C17.5819 4.07715 16.922 4.73709 16.922 5.55117C16.922 6.36524 17.5819 7.02518 18.396 7.02518Z" fill="#1E2B4C"/>
</g>
<defs>
<clipPath id="clip0_404_450">
<rect width="24" height="24" fill="white"/>
</clipPath>
</defs>
</svg>
