<svg width="90" height="44" viewBox="0 0 90 44" fill="none" xmlns="http://www.w3.org/2000/svg">
<path d="M8.904 28V18.416H5.176V16.72H14.696V18.416H10.968V28H8.904ZM16.1543 28V16.72H18.2183V28H16.1543ZM24.7238 22.352C24.7238 21.168 24.9371 20.144 25.3638 19.28C25.8011 18.416 26.4251 17.7493 27.2358 17.28C28.0464 16.8 29.0118 16.56 30.1318 16.56C31.2411 16.56 32.2011 16.8 33.0118 17.28C33.8224 17.7493 34.4464 18.416 34.8838 19.28C35.3318 20.144 35.5558 21.1627 35.5558 22.336C35.5558 23.52 35.3318 24.5493 34.8838 25.424C34.4464 26.288 33.8224 26.96 33.0118 27.44C32.2011 27.92 31.2411 28.16 30.1318 28.16C29.0118 28.16 28.0464 27.92 27.2358 27.44C26.4358 26.96 25.8171 26.288 25.3798 25.424C24.9424 24.5493 24.7238 23.5253 24.7238 22.352ZM26.8838 22.352C26.8838 23.6213 27.1558 24.6133 27.6998 25.328C28.2438 26.0427 29.0544 26.4 30.1318 26.4C31.1771 26.4 31.9824 26.0427 32.5478 25.328C33.1131 24.6133 33.3958 23.6213 33.3958 22.352C33.3958 21.072 33.1131 20.08 32.5478 19.376C31.9931 18.672 31.1878 18.32 30.1318 18.32C29.0544 18.32 28.2438 18.672 27.6998 19.376C27.1558 20.08 26.8838 21.072 26.8838 22.352ZM37.5095 28V21.984C37.5095 21.6427 37.4988 21.296 37.4775 20.944C37.4668 20.592 37.4402 20.2507 37.3975 19.92H39.3335L39.5575 22.128H39.2375C39.3442 21.5947 39.5202 21.152 39.7655 20.8C40.0215 20.448 40.3308 20.1867 40.6935 20.016C41.0562 19.8453 41.4508 19.76 41.8775 19.76C42.0695 19.76 42.2242 19.7707 42.3415 19.792C42.4588 19.8027 42.5762 19.8293 42.6935 19.872L42.6775 21.632C42.4748 21.5467 42.2988 21.4933 42.1495 21.472C42.0108 21.4507 41.8348 21.44 41.6215 21.44C41.1628 21.44 40.7735 21.536 40.4535 21.728C40.1442 21.92 39.9095 22.1867 39.7495 22.528C39.6002 22.8693 39.5255 23.2587 39.5255 23.696V28H37.5095ZM47.4258 31.584C46.6791 31.584 46.0018 31.504 45.3938 31.344C44.7964 31.184 44.2631 30.9387 43.7938 30.608L44.2258 29.168C44.5351 29.3707 44.8551 29.536 45.1858 29.664C45.5164 29.792 45.8578 29.888 46.2098 29.952C46.5618 30.016 46.9191 30.048 47.2818 30.048C48.0284 30.048 48.5831 29.8613 48.9458 29.488C49.3191 29.1253 49.5058 28.6027 49.5058 27.92V25.984H49.6658C49.4951 26.5387 49.1484 26.9813 48.6258 27.312C48.1138 27.6427 47.5218 27.808 46.8498 27.808C46.1244 27.808 45.4898 27.648 44.9457 27.328C44.4124 26.9973 43.9964 26.528 43.6978 25.92C43.3991 25.312 43.2498 24.5973 43.2498 23.776C43.2498 22.9547 43.3991 22.2453 43.6978 21.648C43.9964 21.04 44.4124 20.576 44.9457 20.256C45.4898 19.9253 46.1244 19.76 46.8498 19.76C47.5324 19.76 48.1244 19.9253 48.6258 20.256C49.1378 20.576 49.4791 21.0133 49.6498 21.568L49.5058 21.472L49.6658 19.92H51.6018C51.5591 20.2507 51.5271 20.5867 51.5058 20.928C51.4844 21.2693 51.4738 21.6053 51.4738 21.936V27.68C51.4738 28.9493 51.1271 29.9147 50.4338 30.576C49.7511 31.248 48.7484 31.584 47.4258 31.584ZM47.3938 26.272C48.0338 26.272 48.5404 26.0587 48.9138 25.632C49.2978 25.1947 49.4898 24.576 49.4898 23.776C49.4898 22.976 49.2978 22.3627 48.9138 21.936C48.5404 21.5093 48.0338 21.296 47.3938 21.296C46.7431 21.296 46.2258 21.5093 45.8418 21.936C45.4578 22.3627 45.2658 22.976 45.2658 23.776C45.2658 24.576 45.4578 25.1947 45.8418 25.632C46.2258 26.0587 46.7431 26.272 47.3938 26.272ZM56.7549 28.16C56.0509 28.16 55.4322 27.9947 54.8989 27.664C54.3655 27.3227 53.9495 26.8373 53.6509 26.208C53.3522 25.5787 53.2029 24.8267 53.2029 23.952C53.2029 23.0773 53.3522 22.3307 53.6509 21.712C53.9495 21.0827 54.3655 20.6027 54.8989 20.272C55.4322 19.9307 56.0509 19.76 56.7549 19.76C57.4375 19.76 58.0349 19.9307 58.5469 20.272C59.0695 20.6027 59.4162 21.0507 59.5869 21.616H59.4109L59.5869 19.92H61.5069C61.4749 20.2507 61.4429 20.5867 61.4109 20.928C61.3895 21.2693 61.3789 21.6053 61.3789 21.936V28H59.3949L59.3789 26.336H59.5709C59.4002 26.8907 59.0535 27.3333 58.5309 27.664C58.0082 27.9947 57.4162 28.16 56.7549 28.16ZM57.3149 26.624C57.9442 26.624 58.4509 26.4053 58.8349 25.968C59.2189 25.52 59.4109 24.848 59.4109 23.952C59.4109 23.056 59.2189 22.3893 58.8349 21.952C58.4509 21.5147 57.9442 21.296 57.3149 21.296C56.6855 21.296 56.1789 21.5147 55.7949 21.952C55.4109 22.3893 55.2189 23.056 55.2189 23.952C55.2189 24.848 55.4055 25.52 55.7789 25.968C56.1629 26.4053 56.6749 26.624 57.3149 26.624ZM63.5568 28V21.936C63.5568 21.6053 63.5461 21.2693 63.5247 20.928C63.5034 20.5867 63.4714 20.2507 63.4288 19.92H65.3648L65.5248 21.52H65.3328C65.5888 20.9547 65.9674 20.5227 66.4688 20.224C66.9701 19.9147 67.5514 19.76 68.2128 19.76C69.1621 19.76 69.8768 20.0267 70.3568 20.56C70.8368 21.0933 71.0768 21.9253 71.0768 23.056V28H69.0768V23.152C69.0768 22.5013 68.9488 22.0373 68.6928 21.76C68.4474 21.472 68.0741 21.328 67.5728 21.328C66.9541 21.328 66.4634 21.52 66.1008 21.904C65.7381 22.288 65.5568 22.8 65.5568 23.44V28H63.5568ZM73.1974 28V19.92H75.1974V28H73.1974ZM73.0854 18.4V16.448H75.3094V18.4H73.0854ZM81.0813 28.16C80.2493 28.16 79.5186 27.9893 78.8893 27.648C78.2706 27.3067 77.7906 26.8213 77.4493 26.192C77.1079 25.552 76.9373 24.7947 76.9373 23.92C76.9373 23.0453 77.1079 22.2987 77.4493 21.68C77.8013 21.0613 78.2866 20.5867 78.9053 20.256C79.5239 19.9253 80.2493 19.76 81.0813 19.76C81.6146 19.76 82.1319 19.8453 82.6333 20.016C83.1453 20.176 83.5613 20.4107 83.8813 20.72L83.2733 22.112C82.9853 21.8453 82.6599 21.648 82.2973 21.52C81.9453 21.3813 81.5986 21.312 81.2573 21.312C80.5426 21.312 79.9826 21.536 79.5773 21.984C79.1826 22.432 78.9853 23.0827 78.9853 23.936C78.9853 24.7893 79.1826 25.4453 79.5773 25.904C79.9826 26.3627 80.5426 26.592 81.2573 26.592C81.5879 26.592 81.9293 26.528 82.2813 26.4C82.6439 26.272 82.9746 26.0747 83.2733 25.808L83.8813 27.184C83.5506 27.4933 83.1293 27.7333 82.6173 27.904C82.1159 28.0747 81.6039 28.16 81.0813 28.16Z" fill="#003C44"/>
</svg>
