<svg width="100" height="66" viewBox="0 0 100 66" fill="none" xmlns="http://www.w3.org/2000/svg">
    <path d="M13.904 39V29.416H10.176V27.72H19.696V29.416H15.968V39H13.904ZM21.1543 39V27.72H23.2183V39H21.1543ZM29.7238 33.352C29.7238 32.168 29.9371 31.144 30.3638 30.28C30.8011 29.416 31.4251 28.7493 32.2358 28.28C33.0464 27.8 34.0118 27.56 35.1318 27.56C36.2411 27.56 37.2011 27.8 38.0118 28.28C38.8224 28.7493 39.4464 29.416 39.8838 30.28C40.3318 31.144 40.5558 32.1627 40.5558 33.336C40.5558 34.52 40.3318 35.5493 39.8838 36.424C39.4464 37.288 38.8224 37.96 38.0118 38.44C37.2011 38.92 36.2411 39.16 35.1318 39.16C34.0118 39.16 33.0464 38.92 32.2358 38.44C31.4358 37.96 30.8171 37.288 30.3798 36.424C29.9424 35.5493 29.7238 34.5253 29.7238 33.352ZM31.8838 33.352C31.8838 34.6213 32.1558 35.6133 32.6998 36.328C33.2438 37.0427 34.0544 37.4 35.1318 37.4C36.1771 37.4 36.9824 37.0427 37.5478 36.328C38.1131 35.6133 38.3958 34.6213 38.3958 33.352C38.3958 32.072 38.1131 31.08 37.5478 30.376C36.9931 29.672 36.1878 29.32 35.1318 29.32C34.0544 29.32 33.2438 29.672 32.6998 30.376C32.1558 31.08 31.8838 32.072 31.8838 33.352ZM42.5095 39V32.984C42.5095 32.6427 42.4988 32.296 42.4775 31.944C42.4668 31.592 42.4402 31.2507 42.3975 30.92H44.3335L44.5575 33.128H44.2375C44.3442 32.5947 44.5202 32.152 44.7655 31.8C45.0215 31.448 45.3308 31.1867 45.6935 31.016C46.0562 30.8453 46.4508 30.76 46.8775 30.76C47.0695 30.76 47.2242 30.7707 47.3415 30.792C47.4588 30.8027 47.5762 30.8293 47.6935 30.872L47.6775 32.632C47.4748 32.5467 47.2988 32.4933 47.1495 32.472C47.0108 32.4507 46.8348 32.44 46.6215 32.44C46.1628 32.44 45.7735 32.536 45.4535 32.728C45.1442 32.92 44.9095 33.1867 44.7495 33.528C44.6002 33.8693 44.5255 34.2587 44.5255 34.696V39H42.5095ZM52.4258 42.584C51.6791 42.584 51.0018 42.504 50.3938 42.344C49.7964 42.184 49.2631 41.9387 48.7938 41.608L49.2258 40.168C49.5351 40.3707 49.8551 40.536 50.1858 40.664C50.5164 40.792 50.8578 40.888 51.2098 40.952C51.5618 41.016 51.9191 41.048 52.2818 41.048C53.0284 41.048 53.5831 40.8613 53.9458 40.488C54.3191 40.1253 54.5058 39.6027 54.5058 38.92V36.984H54.6658C54.4951 37.5387 54.1484 37.9813 53.6258 38.312C53.1138 38.6427 52.5218 38.808 51.8498 38.808C51.1244 38.808 50.4898 38.648 49.9457 38.328C49.4124 37.9973 48.9964 37.528 48.6978 36.92C48.3991 36.312 48.2498 35.5973 48.2498 34.776C48.2498 33.9547 48.3991 33.2453 48.6978 32.648C48.9964 32.04 49.4124 31.576 49.9457 31.256C50.4898 30.9253 51.1244 30.76 51.8498 30.76C52.5324 30.76 53.1244 30.9253 53.6258 31.256C54.1378 31.576 54.4791 32.0133 54.6498 32.568L54.5058 32.472L54.6658 30.92H56.6018C56.5591 31.2507 56.5271 31.5867 56.5058 31.928C56.4844 32.2693 56.4738 32.6053 56.4738 32.936V38.68C56.4738 39.9493 56.1271 40.9147 55.4338 41.576C54.7511 42.248 53.7484 42.584 52.4258 42.584ZM52.3938 37.272C53.0338 37.272 53.5404 37.0587 53.9138 36.632C54.2978 36.1947 54.4898 35.576 54.4898 34.776C54.4898 33.976 54.2978 33.3627 53.9138 32.936C53.5404 32.5093 53.0338 32.296 52.3938 32.296C51.7431 32.296 51.2258 32.5093 50.8418 32.936C50.4578 33.3627 50.2658 33.976 50.2658 34.776C50.2658 35.576 50.4578 36.1947 50.8418 36.632C51.2258 37.0587 51.7431 37.272 52.3938 37.272ZM61.7549 39.16C61.0509 39.16 60.4322 38.9947 59.8989 38.664C59.3655 38.3227 58.9495 37.8373 58.6509 37.208C58.3522 36.5787 58.2029 35.8267 58.2029 34.952C58.2029 34.0773 58.3522 33.3307 58.6509 32.712C58.9495 32.0827 59.3655 31.6027 59.8989 31.272C60.4322 30.9307 61.0509 30.76 61.7549 30.76C62.4375 30.76 63.0349 30.9307 63.5469 31.272C64.0695 31.6027 64.4162 32.0507 64.5869 32.616H64.4109L64.5869 30.92H66.5069C66.4749 31.2507 66.4429 31.5867 66.4109 31.928C66.3895 32.2693 66.3789 32.6053 66.3789 32.936V39H64.3949L64.3789 37.336H64.5709C64.4002 37.8907 64.0535 38.3333 63.5309 38.664C63.0082 38.9947 62.4162 39.16 61.7549 39.16ZM62.3149 37.624C62.9442 37.624 63.4509 37.4053 63.8349 36.968C64.2189 36.52 64.4109 35.848 64.4109 34.952C64.4109 34.056 64.2189 33.3893 63.8349 32.952C63.4509 32.5147 62.9442 32.296 62.3149 32.296C61.6855 32.296 61.1789 32.5147 60.7949 32.952C60.4109 33.3893 60.2189 34.056 60.2189 34.952C60.2189 35.848 60.4055 36.52 60.7789 36.968C61.1629 37.4053 61.6749 37.624 62.3149 37.624ZM68.5568 39V32.936C68.5568 32.6053 68.5461 32.2693 68.5247 31.928C68.5034 31.5867 68.4714 31.2507 68.4288 30.92H70.3648L70.5248 32.52H70.3328C70.5888 31.9547 70.9674 31.5227 71.4688 31.224C71.9701 30.9147 72.5514 30.76 73.2128 30.76C74.1621 30.76 74.8768 31.0267 75.3568 31.56C75.8368 32.0933 76.0768 32.9253 76.0768 34.056V39H74.0768V34.152C74.0768 33.5013 73.9488 33.0373 73.6928 32.76C73.4474 32.472 73.0741 32.328 72.5728 32.328C71.9541 32.328 71.4634 32.52 71.1008 32.904C70.7381 33.288 70.5568 33.8 70.5568 34.44V39H68.5568ZM78.1974 39V30.92H80.1974V39H78.1974ZM78.0854 29.4V27.448H80.3094V29.4H78.0854ZM86.0813 39.16C85.2493 39.16 84.5186 38.9893 83.8893 38.648C83.2706 38.3067 82.7906 37.8213 82.4493 37.192C82.1079 36.552 81.9373 35.7947 81.9373 34.92C81.9373 34.0453 82.1079 33.2987 82.4493 32.68C82.8013 32.0613 83.2866 31.5867 83.9053 31.256C84.5239 30.9253 85.2493 30.76 86.0813 30.76C86.6146 30.76 87.1319 30.8453 87.6333 31.016C88.1453 31.176 88.5613 31.4107 88.8813 31.72L88.2733 33.112C87.9853 32.8453 87.6599 32.648 87.2973 32.52C86.9453 32.3813 86.5986 32.312 86.2573 32.312C85.5426 32.312 84.9826 32.536 84.5773 32.984C84.1826 33.432 83.9853 34.0827 83.9853 34.936C83.9853 35.7893 84.1826 36.4453 84.5773 36.904C84.9826 37.3627 85.5426 37.592 86.2573 37.592C86.5879 37.592 86.9293 37.528 87.2813 37.4C87.6439 37.272 87.9746 37.0747 88.2733 36.808L88.8813 38.184C88.5506 38.4933 88.1293 38.7333 87.6173 38.904C87.1159 39.0747 86.6039 39.16 86.0813 39.16Z"
          fill="#003C44"/>
    <path d="M0 0H100H0ZM100 66H0H100ZM0 66V0V66ZM75 0C90.464 0 103 12.536 103 28V38C103 53.464 90.464 66 75 66C87.1503 66 97 54.8071 97 41V25C97 11.1929 87.1503 0 75 0Z" fill="#003C44" mask="url(#path-1-inside-1_11_162)"/>
</svg>
