<svg version="1.1" xmlns="http://www.w3.org/2000/svg">
    <symbol id="logo" width="90" height="44" viewBox="0 0 90 44">
        <path
            d="M8.904 28V18.416H5.176V16.72H14.696V18.416H10.968V28H8.904ZM16.1543 28V16.72H18.2183V28H16.1543ZM24.7238 22.352C24.7238 21.168 24.9371 20.144 25.3638 19.28C25.8011 18.416 26.4251 17.7493 27.2358 17.28C28.0464 16.8 29.0118 16.56 30.1318 16.56C31.2411 16.56 32.2011 16.8 33.0118 17.28C33.8224 17.7493 34.4464 18.416 34.8838 19.28C35.3318 20.144 35.5558 21.1627 35.5558 22.336C35.5558 23.52 35.3318 24.5493 34.8838 25.424C34.4464 26.288 33.8224 26.96 33.0118 27.44C32.2011 27.92 31.2411 28.16 30.1318 28.16C29.0118 28.16 28.0464 27.92 27.2358 27.44C26.4358 26.96 25.8171 26.288 25.3798 25.424C24.9424 24.5493 24.7238 23.5253 24.7238 22.352ZM26.8838 22.352C26.8838 23.6213 27.1558 24.6133 27.6998 25.328C28.2438 26.0427 29.0544 26.4 30.1318 26.4C31.1771 26.4 31.9824 26.0427 32.5478 25.328C33.1131 24.6133 33.3958 23.6213 33.3958 22.352C33.3958 21.072 33.1131 20.08 32.5478 19.376C31.9931 18.672 31.1878 18.32 30.1318 18.32C29.0544 18.32 28.2438 18.672 27.6998 19.376C27.1558 20.08 26.8838 21.072 26.8838 22.352ZM37.5095 28V21.984C37.5095 21.6427 37.4988 21.296 37.4775 20.944C37.4668 20.592 37.4402 20.2507 37.3975 19.92H39.3335L39.5575 22.128H39.2375C39.3442 21.5947 39.5202 21.152 39.7655 20.8C40.0215 20.448 40.3308 20.1867 40.6935 20.016C41.0562 19.8453 41.4508 19.76 41.8775 19.76C42.0695 19.76 42.2242 19.7707 42.3415 19.792C42.4588 19.8027 42.5762 19.8293 42.6935 19.872L42.6775 21.632C42.4748 21.5467 42.2988 21.4933 42.1495 21.472C42.0108 21.4507 41.8348 21.44 41.6215 21.44C41.1628 21.44 40.7735 21.536 40.4535 21.728C40.1442 21.92 39.9095 22.1867 39.7495 22.528C39.6002 22.8693 39.5255 23.2587 39.5255 23.696V28H37.5095ZM47.4258 31.584C46.6791 31.584 46.0018 31.504 45.3938 31.344C44.7964 31.184 44.2631 30.9387 43.7938 30.608L44.2258 29.168C44.5351 29.3707 44.8551 29.536 45.1858 29.664C45.5164 29.792 45.8578 29.888 46.2098 29.952C46.5618 30.016 46.9191 30.048 47.2818 30.048C48.0284 30.048 48.5831 29.8613 48.9458 29.488C49.3191 29.1253 49.5058 28.6027 49.5058 27.92V25.984H49.6658C49.4951 26.5387 49.1484 26.9813 48.6258 27.312C48.1138 27.6427 47.5218 27.808 46.8498 27.808C46.1244 27.808 45.4898 27.648 44.9457 27.328C44.4124 26.9973 43.9964 26.528 43.6978 25.92C43.3991 25.312 43.2498 24.5973 43.2498 23.776C43.2498 22.9547 43.3991 22.2453 43.6978 21.648C43.9964 21.04 44.4124 20.576 44.9457 20.256C45.4898 19.9253 46.1244 19.76 46.8498 19.76C47.5324 19.76 48.1244 19.9253 48.6258 20.256C49.1378 20.576 49.4791 21.0133 49.6498 21.568L49.5058 21.472L49.6658 19.92H51.6018C51.5591 20.2507 51.5271 20.5867 51.5058 20.928C51.4844 21.2693 51.4738 21.6053 51.4738 21.936V27.68C51.4738 28.9493 51.1271 29.9147 50.4338 30.576C49.7511 31.248 48.7484 31.584 47.4258 31.584ZM47.3938 26.272C48.0338 26.272 48.5404 26.0587 48.9138 25.632C49.2978 25.1947 49.4898 24.576 49.4898 23.776C49.4898 22.976 49.2978 22.3627 48.9138 21.936C48.5404 21.5093 48.0338 21.296 47.3938 21.296C46.7431 21.296 46.2258 21.5093 45.8418 21.936C45.4578 22.3627 45.2658 22.976 45.2658 23.776C45.2658 24.576 45.4578 25.1947 45.8418 25.632C46.2258 26.0587 46.7431 26.272 47.3938 26.272ZM56.7549 28.16C56.0509 28.16 55.4322 27.9947 54.8989 27.664C54.3655 27.3227 53.9495 26.8373 53.6509 26.208C53.3522 25.5787 53.2029 24.8267 53.2029 23.952C53.2029 23.0773 53.3522 22.3307 53.6509 21.712C53.9495 21.0827 54.3655 20.6027 54.8989 20.272C55.4322 19.9307 56.0509 19.76 56.7549 19.76C57.4375 19.76 58.0349 19.9307 58.5469 20.272C59.0695 20.6027 59.4162 21.0507 59.5869 21.616H59.4109L59.5869 19.92H61.5069C61.4749 20.2507 61.4429 20.5867 61.4109 20.928C61.3895 21.2693 61.3789 21.6053 61.3789 21.936V28H59.3949L59.3789 26.336H59.5709C59.4002 26.8907 59.0535 27.3333 58.5309 27.664C58.0082 27.9947 57.4162 28.16 56.7549 28.16ZM57.3149 26.624C57.9442 26.624 58.4509 26.4053 58.8349 25.968C59.2189 25.52 59.4109 24.848 59.4109 23.952C59.4109 23.056 59.2189 22.3893 58.8349 21.952C58.4509 21.5147 57.9442 21.296 57.3149 21.296C56.6855 21.296 56.1789 21.5147 55.7949 21.952C55.4109 22.3893 55.2189 23.056 55.2189 23.952C55.2189 24.848 55.4055 25.52 55.7789 25.968C56.1629 26.4053 56.6749 26.624 57.3149 26.624ZM63.5568 28V21.936C63.5568 21.6053 63.5461 21.2693 63.5247 20.928C63.5034 20.5867 63.4714 20.2507 63.4288 19.92H65.3648L65.5248 21.52H65.3328C65.5888 20.9547 65.9674 20.5227 66.4688 20.224C66.9701 19.9147 67.5514 19.76 68.2128 19.76C69.1621 19.76 69.8768 20.0267 70.3568 20.56C70.8368 21.0933 71.0768 21.9253 71.0768 23.056V28H69.0768V23.152C69.0768 22.5013 68.9488 22.0373 68.6928 21.76C68.4474 21.472 68.0741 21.328 67.5728 21.328C66.9541 21.328 66.4634 21.52 66.1008 21.904C65.7381 22.288 65.5568 22.8 65.5568 23.44V28H63.5568ZM73.1974 28V19.92H75.1974V28H73.1974ZM73.0854 18.4V16.448H75.3094V18.4H73.0854ZM81.0813 28.16C80.2493 28.16 79.5186 27.9893 78.8893 27.648C78.2706 27.3067 77.7906 26.8213 77.4493 26.192C77.1079 25.552 76.9373 24.7947 76.9373 23.92C76.9373 23.0453 77.1079 22.2987 77.4493 21.68C77.8013 21.0613 78.2866 20.5867 78.9053 20.256C79.5239 19.9253 80.2493 19.76 81.0813 19.76C81.6146 19.76 82.1319 19.8453 82.6333 20.016C83.1453 20.176 83.5613 20.4107 83.8813 20.72L83.2733 22.112C82.9853 21.8453 82.6599 21.648 82.2973 21.52C81.9453 21.3813 81.5986 21.312 81.2573 21.312C80.5426 21.312 79.9826 21.536 79.5773 21.984C79.1826 22.432 78.9853 23.0827 78.9853 23.936C78.9853 24.7893 79.1826 25.4453 79.5773 25.904C79.9826 26.3627 80.5426 26.592 81.2573 26.592C81.5879 26.592 81.9293 26.528 82.2813 26.4C82.6439 26.272 82.9746 26.0747 83.2733 25.808L83.8813 27.184C83.5506 27.4933 83.1293 27.7333 82.6173 27.904C82.1159 28.0747 81.6039 28.16 81.0813 28.16Z"
            fill="#003C44"/>
    </symbol>
    <symbol id="heart" viewBox="0 0 24 24">
        <path
            d="M16.5431 3.75C13.5 3.75 12 6.75 12 6.75C12 6.75 10.5 3.75 7.45687 3.75C4.98374 3.75 3.0253 5.81906 2.99999 8.28797C2.94843 13.4128 7.06546 17.0573 11.5781 20.1202C11.7025 20.2048 11.8495 20.2501 12 20.2501C12.1505 20.2501 12.2975 20.2048 12.4219 20.1202C16.9341 17.0573 21.0511 13.4128 21 8.28797C20.9747 5.81906 19.0162 3.75 16.5431 3.75V3.75Z"
            stroke-width="1.5" stroke-linecap="round" stroke-linejoin="round"/>
    </symbol>
    <symbol id="cart" viewBox="0 0 24 24" fill="none">
        <path
            d="M8.25 20.25C8.66421 20.25 9 19.9142 9 19.5C9 19.0858 8.66421 18.75 8.25 18.75C7.83579 18.75 7.5 19.0858 7.5 19.5C7.5 19.9142 7.83579 20.25 8.25 20.25Z"
            stroke="#1E2B4C" stroke-width="1.5" stroke-linecap="round" stroke-linejoin="round"/>
        <path
            d="M18.75 20.25C19.1642 20.25 19.5 19.9142 19.5 19.5C19.5 19.0858 19.1642 18.75 18.75 18.75C18.3358 18.75 18 19.0858 18 19.5C18 19.9142 18.3358 20.25 18.75 20.25Z"
            stroke="#1E2B4C" stroke-width="1.5" stroke-linecap="round" stroke-linejoin="round"/>
        <path d="M2.25 3.75H5.25L7.5 16.5H19.5" stroke="#1E2B4C" stroke-width="1.5" stroke-linecap="round"
              stroke-linejoin="round"/>
        <path
            d="M7.5 13.5H19.1925C19.2792 13.5001 19.3633 13.4701 19.4304 13.4151C19.4975 13.3601 19.5434 13.2836 19.5605 13.1986L20.9105 6.44859C20.9214 6.39417 20.92 6.338 20.9066 6.28414C20.8931 6.23029 20.8679 6.18009 20.8327 6.13717C20.7975 6.09426 20.7532 6.05969 20.703 6.03597C20.6528 6.01225 20.598 5.99996 20.5425 6H6"
            stroke="#1E2B4C" stroke-width="1.5" stroke-linecap="round" stroke-linejoin="round"/>
    </symbol>
    <symbol id="dalacode" viewBox="0 0 89 25" fill="none">
        <g clip-path="url(#clip0_46_215)">
            <path
                d="M-0.0491943 21.7775V17.4502C-0.0491943 15.1593 1.10312 14.0138 3.40774 14.0138H6.69396V9.51685H9.63875V25.2138H3.40774C1.10312 25.2138 -0.0491943 24.0684 -0.0491943 21.7775ZM2.8956 21.9881C2.8956 22.4416 3.12322 22.6684 3.57845 22.6684H6.69396V16.5608H3.57845C3.12322 16.5608 2.8956 16.786 2.8956 17.2365V21.9881Z"
                fill="white"/>
            <path
                d="M15.5714 25.2136C13.2668 25.2136 12.1145 24.0893 12.1145 21.8408C12.1145 19.5923 13.2668 18.4676 15.5714 18.4666H18.5162V17.2363C18.5162 16.7848 18.2886 16.559 17.8334 16.559H13.3095V14.9681L14.5898 14.0135H18.0041C20.3087 14.0135 21.461 15.159 21.461 17.4499V25.2136H15.5714ZM15.0593 21.9878C15.0593 22.4413 15.2869 22.6681 15.7421 22.6681H18.5162V20.7575H15.7421C15.2869 20.7575 15.0593 20.9843 15.0593 21.4378V21.9878Z"
                fill="white"/>
            <path
                d="M24.3632 21.1411V9.51685H27.308V21.4381C27.308 22.3138 27.7652 22.7941 28.6798 22.879V25.4259C25.801 25.4259 24.3621 23.9976 24.3632 21.1411Z"
                fill="white"/>
            <path
                d="M33.9231 25.2136C31.6184 25.2136 30.4661 24.0893 30.4661 21.8408C30.4661 19.5923 31.6184 18.4676 33.9231 18.4666H36.8678V17.2363C36.8678 16.7817 36.6392 16.559 36.185 16.559H31.6611V14.9681L32.9415 14.0135H36.3557C38.6603 14.0135 39.8126 15.159 39.8126 17.4499V25.2136H33.9231ZM33.4109 21.9878C33.4109 22.4413 33.6385 22.6681 34.0938 22.6681H36.8678V20.7575H34.0938C33.6375 20.7575 33.4099 20.9843 33.4109 21.4378V21.9878Z"
                fill="white"/>
            <path
                d="M42.6295 21.7772V17.4499C42.6295 15.159 43.7818 14.0135 46.0865 14.0135H50.0494L51.3298 14.9681V16.5605H46.2572C45.8009 16.5605 45.5733 16.7863 45.5743 17.2378V21.9893C45.5743 22.4428 45.8019 22.6696 46.2572 22.6696H51.3359V24.2605L50.0555 25.2151H46.0926C43.7839 25.2141 42.6295 24.0681 42.6295 21.7772Z"
                fill="white"/>
            <path
                d="M53.6816 21.7772V17.4499C53.6816 15.159 54.8339 14.0135 57.1385 14.0135H60.126C62.4306 14.0135 63.5829 15.159 63.5829 17.4499V21.7772C63.5829 24.0681 62.4306 25.2136 60.126 25.2136H57.1385C54.8339 25.2136 53.6816 24.0681 53.6816 21.7772ZM56.6264 21.9878C56.6264 22.4423 56.855 22.6681 57.3092 22.6681H59.9553C60.4105 22.6681 60.6381 22.4413 60.6381 21.9878V17.2363C60.6381 16.7848 60.4105 16.559 59.9553 16.559H57.3108C56.8535 16.559 56.6279 16.7848 56.6279 17.2363L56.6264 21.9878Z"
                fill="white"/>
            <path
                d="M66.3143 21.7775V17.4502C66.3143 15.1593 67.4666 14.0138 69.7712 14.0138H73.0574V9.51685H76.0022V25.2138H69.7712C67.4666 25.2138 66.3143 24.0684 66.3143 21.7775ZM69.2591 21.9881C69.2591 22.4426 69.4877 22.6684 69.9419 22.6684H73.0574V16.5608H69.9419C69.4846 16.5608 69.2591 16.7865 69.2591 17.2381V21.9881Z"
                fill="white"/>
            <path
                d="M78.9044 21.7772V17.4499C78.9044 15.159 80.0567 14.0135 82.3614 14.0135H85.1354C87.4401 14.0135 88.5924 15.159 88.5924 17.4499V20.7166H81.8507V21.9878C81.8507 22.4423 82.0794 22.6681 82.5336 22.6681H88.1732V24.259L86.8929 25.2136H82.3614C80.0567 25.2136 78.9044 24.0681 78.9044 21.7772ZM81.8507 18.4257H85.6491V17.2363C85.6491 16.7848 85.4215 16.559 84.9662 16.559H82.5275C82.0702 16.559 81.8446 16.7848 81.8446 17.2363L81.8507 18.4257Z"
                fill="white"/>
            <path
                d="M0.727844 9.1908V2.6908H3.22452C4.09028 2.6908 4.52315 3.12413 4.52315 3.9908V6.07261C4.52315 6.93928 4.09028 7.37261 3.22452 7.37261H1.13938V9.1908H0.727844ZM1.13938 7.01504H3.2611C3.83014 7.01504 4.11466 6.7312 4.11466 6.16352V3.89989C4.11466 3.33625 3.83116 3.05443 3.26415 3.05443H1.13938V7.01504Z"
                fill="white"/>
            <path
                d="M5.93225 6.07269V3.98481C5.93225 3.11815 6.36818 2.68481 7.24003 2.68481H8.52038C9.38614 2.68481 9.81902 3.11815 9.81902 3.98481V6.07269C9.81902 6.93936 9.38614 7.37269 8.52038 7.37269H7.24003C6.36818 7.37269 5.93225 6.93936 5.93225 6.07269ZM6.34379 6.1636C6.34379 6.73128 6.6273 7.01512 7.19431 7.01512H8.55696C9.12397 7.01512 9.40748 6.7333 9.40748 6.16966V3.89997C9.40748 3.33633 9.12397 3.05451 8.55696 3.05451H7.19431C6.6273 3.05451 6.34379 3.33633 6.34379 3.89997V6.1636Z"
                fill="white"/>
            <path
                d="M10.7518 2.78171L10.8158 2.6908H11.1451L12.2608 7.01504H12.4254L13.7515 2.69686H14.2453L15.5714 7.01504H15.7452L16.8609 2.69686H17.181L17.245 2.78777L16.047 7.37867H15.2971L13.9984 3.11807L12.6998 7.37261H11.959L10.7518 2.78171Z"
                fill="white"/>
            <path
                d="M18.1779 6.07269V3.98481C18.1779 3.11815 18.6138 2.68481 19.4856 2.68481H20.6745C21.5403 2.68481 21.9732 3.11815 21.9732 3.98481V5.19693H18.5955V6.16057C18.5955 6.73027 18.877 7.01512 19.4399 7.01512H21.7964V7.18178L21.5403 7.37269H19.4856C18.6138 7.37269 18.1779 6.93936 18.1779 6.07269ZM18.5894 4.83633H21.5616V3.89997C21.5616 3.33633 21.2781 3.05451 20.7111 3.05451H19.4399C18.8729 3.05451 18.5894 3.33633 18.5894 3.89997V4.83633Z"
                fill="white"/>
            <path
                d="M23.4182 7.37261V3.1908C23.6214 2.85746 23.9963 2.6908 24.543 2.6908H25.4118L25.6679 2.88171V3.05443H24.4973C24.3747 3.04362 24.2512 3.06003 24.1357 3.10248C24.0202 3.14493 23.9157 3.21236 23.8297 3.29989V7.37261H23.4182Z"
                fill="white"/>
            <path
                d="M26.6099 6.07269V3.98481C26.6099 3.11815 27.0458 2.68481 27.9176 2.68481H29.1126C29.9784 2.68481 30.4113 3.11815 30.4113 3.98481V5.19693H27.0275V6.16057C27.0275 6.72421 27.311 7.00602 27.878 7.00602H30.2284V7.18178L29.9723 7.37269H27.9176C27.0458 7.37269 26.6099 6.93936 26.6099 6.07269ZM27.0214 4.83633H29.9936V3.89997C29.9936 3.33633 29.7101 3.05451 29.1431 3.05451H27.8719C27.3049 3.05451 27.0214 3.33633 27.0214 3.89997V4.83633Z"
                fill="white"/>
            <path
                d="M31.8135 6.0727V3.98482C31.8135 3.11816 32.2495 2.68482 33.1213 2.68482H35.1973V0.651489H35.6088V7.37876H33.1213C32.2495 7.37472 31.8135 6.93937 31.8135 6.0727ZM32.2251 6.16361C32.2251 6.73129 32.5086 7.01513 33.0756 7.01513H35.1973V3.05452H33.0756C32.5086 3.05452 32.2251 3.33634 32.2251 3.89998V6.16361Z"
                fill="white"/>
            <path
                d="M39.3585 7.3727V0.651489H39.7701V2.69694H41.8552C42.721 2.69694 43.1538 3.13028 43.1538 3.99694V6.0727C43.1538 6.93937 42.721 7.3727 41.8552 7.3727H39.3585ZM39.7701 7.00906H41.8918C42.4588 7.00906 42.7423 6.72725 42.7423 6.16361V3.89997C42.7423 3.33634 42.4588 3.05452 41.8918 3.05452H39.7701V7.00906Z"
                fill="white"/>
            <path
                d="M44.05 2.78171L44.1049 2.6908H44.4615L46.0162 7.01504H46.254L47.8087 2.69686H48.1654L48.2203 2.78777L45.8608 9.19686H45.5041L45.4492 9.10595L46.1077 7.37868H45.7419L44.05 2.78171Z"
                fill="white"/>
        </g>
        <defs>
            <clipPath id="clip0_46_215">
                <rect width="88.7097" height="25" fill="white" transform="translate(0 0.5)"/>
            </clipPath>
        </defs>
    </symbol>
    <symbol id="hamburger" viewBox="0 0 52 52" fill="none">
        <rect x="1" y="1" width="50" height="50" rx="3" fill="white"/>
        <path d="M17.75 21.5H34.25M17.75 26H34.25M17.75 30.5H34.25" stroke="#F4BC50" stroke-width="1.5"
              stroke-miterlimit="10" stroke-linecap="round"/>
        <rect x="1" y="1" width="50" height="50" rx="3" stroke="#F4BC50" stroke-width="2"/>
    </symbol>
    <symbol id="arrow-hamburger" viewBox="0 0 12 22" fill="none">
        <path d="M1.5 20L10.5 11L1.5 2" stroke="#1E2B4C" stroke-width="3" stroke-linecap="round"
              stroke-linejoin="round"/>
    </symbol>
    <symbol id="bag" viewBox="0 0 24 24" fill="none">
        <path
            d="M7.5 8.25V6.75C7.5 5.55653 7.97411 4.41193 8.81802 3.56802C9.66193 2.72411 10.8065 2.25 12 2.25V2.25C13.1935 2.25 14.3381 2.72411 15.182 3.56802C16.0259 4.41193 16.5 5.55653 16.5 6.75V8.25M3.75 8.25C3.55109 8.25 3.36032 8.32902 3.21967 8.46967C3.07902 8.61032 3 8.80109 3 9V19.125C3 20.5425 4.2075 21.75 5.625 21.75H18.375C19.7925 21.75 21 20.6011 21 19.1836V9C21 8.80109 20.921 8.61032 20.7803 8.46967C20.6397 8.32902 20.4489 8.25 20.25 8.25H3.75Z"
            stroke="white" stroke-width="1.5" stroke-linecap="round" stroke-linejoin="round"/>
        <path
            d="M7.5 10.5V11.25C7.5 12.4435 7.97411 13.5881 8.81802 14.432C9.66193 15.2759 10.8065 15.75 12 15.75C13.1935 15.75 14.3381 15.2759 15.182 14.432C16.0259 13.5881 16.5 12.4435 16.5 11.25V10.5"
            stroke="white" stroke-width="1.5" stroke-linecap="round" stroke-linejoin="round"/>
    </symbol>
    <symbol id="arrow-next" viewBox="0 0 20 20" fill="none">
        <path d="M10.4688 4.375L16.0938 10L10.4688 15.625M15.3125 10H3.90625" stroke-width="1.875"
              stroke-linecap="round" stroke-linejoin="round"/>
    </symbol>
    <symbol id="arrow-prev" viewBox="0 0 20 20" fill="none">
        <path d="M9.53125 15.625L3.90625 10L9.53125 4.375M4.6875 10L16.0938 10" stroke-width="1.875"
              stroke-linecap="round" stroke-linejoin="round"/>
    </symbol>
    <symbol id="product-element" viewBox="0 0 88 80" fill="none">
        <path
            d="M46.1563 0H84C86.2091 0 88 1.79086 88 4L88 80C88 80 8.59331 57.8616 0.783105 35.2201C-7.0271 12.5786 46.1563 0 46.1563 0Z"
            fill="#F4BC50" fill-opacity="0.15"/>
    </symbol>
    <symbol id="add-outline" viewBox="0 0 20 20">
        <path d="M10 4.375V15.625M15.625 10H4.375" stroke-width="1.25" stroke-linecap="round"
              stroke-linejoin="round"/>
    </symbol>
    <symbol id="favorite" viewBox="0 0 40 40">
        <path d="M27.5719 6.25C22.5 6.25 20 11.25
        20 11.25C20 11.25 17.5 6.25 12.4281 6.25C8.30625
        6.25 5.04219 9.69844 5 13.8133C4.91406 22.3547 11.7758 28.4289
        19.2969 33.5336C19.5042 33.6747 19.7492 33.7501 20 33.7501C20.2508 33.7501
        20.4958 33.6747 20.7031 33.5336C28.2234 28.4289 35.0852 22.3547 35 13.8133C34.9578
        9.69844 31.6937 6.25 27.5719 6.25V6.25Z" stroke-width="1.5" stroke-linecap="round" stroke-linejoin="round"/>
    </symbol>
    <symbol id="arrow-count" viewBox="0 0 24 24" fill="none">
        <path d="M5.25 8.625L12 15.375L18.75 8.625" stroke="white" stroke-width="2.25" stroke-linecap="round"
              stroke-linejoin="round"/>
    </symbol>
    <symbol id="plus" viewBox="0 0 24 24" fill="none">
        <path d="M12 5.25V18.75M18.75 12H5.25" stroke="black" stroke-width="1.5" stroke-linecap="round"
              stroke-linejoin="round"/>
    </symbol>
    <symbol id="close" viewBox="0 0 40 40" fill="none">
        <path d="M12.045 28.2047L27.9549 12.2948M12.2218 12.4716L27.7782 28.028" stroke="" stroke-width="2.5"
              stroke-linecap="round" stroke-linejoin="round"/>
    </symbol>
    <symbol id="line" viewBox="0 0 24 24" fill="none">
        <path d="M5 12H18.5" stroke="#FFFBF0" stroke-width="2" stroke-linecap="round" stroke-linejoin="round"/>
    </symbol>
    <symbol id="instagram" viewBox="0 0 24 24" fill="none">
        <g clip-path="url(#clip0_404_450)">
            <path
                d="M12.0199 5.80371C8.56589 5.80371 5.75525 8.58413 5.75525 12.002C5.75525 15.4196 8.5655 18.2 12.0199 18.2C15.474 18.2 18.2846 15.4196 18.2846 12.002C18.2846 8.58413 15.474 5.80371 12.0199 5.80371ZM12.0199 15.9181C9.82362 15.9181 8.03713 14.1611 8.03713 12.002C8.03713 9.84264 9.82362 8.08599 12.0199 8.08599C14.2158 8.08599 16.0027 9.84264 16.0027 12.002C16.0027 14.1615 14.2162 15.9181 12.0199 15.9181Z"
                fill="#1E2B4C"/>
            <path
                d="M17.0919 0H6.90806C3.09917 0 0 3.09877 0 6.90806V17.1854C0 20.9943 3.09877 24.0934 6.90806 24.0934H17.0919C20.9012 24.0934 24 20.9943 24 17.1854V6.90806C24 3.09917 20.9012 0 17.0919 0ZM21.7138 17.1854C21.7138 19.7338 19.6404 21.8072 17.0919 21.8072H6.90806C4.35964 21.8072 2.2862 19.7338 2.2862 17.1854V6.90806C2.2862 4.35964 4.35964 2.2862 6.90806 2.2862H17.0919C19.6404 2.2862 21.7138 4.35964 21.7138 6.90806V17.1854Z"
                fill="#1E2B4C"/>
            <path
                d="M18.396 7.02518C19.2101 7.02518 19.87 6.36524 19.87 5.55117C19.87 4.73709 19.2101 4.07715 18.396 4.07715C17.5819 4.07715 16.922 4.73709 16.922 5.55117C16.922 6.36524 17.5819 7.02518 18.396 7.02518Z"
                fill="#1E2B4C"/>
        </g>
        <defs>
            <clipPath id="clip0_404_450">
                <rect width="24" height="24" fill="white"/>
            </clipPath>
        </defs>
    </symbol>
    <symbol id="phone" viewBox="0 0 24 24" fill="none">
        <g clip-path="url(#clip0_404_492)">
            <path
                d="M22.1257 16.9809C21.3987 16.3816 20.5683 15.8826 19.8412 15.3831C18.2833 14.2848 16.8297 14.2848 15.6874 15.9824C15.0641 16.9809 14.1295 16.9809 13.1953 16.5817C10.5989 15.3836 8.52203 13.6859 7.27598 11.0896C6.75651 9.9913 6.75651 8.89298 8.00304 8.09407C8.62631 7.69485 9.35289 7.19536 9.24909 6.19685C9.14529 4.99872 6.13372 0.904862 4.88768 0.505176C4.36821 0.305566 3.84922 0.305566 3.32975 0.505176C0.525776 1.40389 -0.720273 3.70033 0.421979 6.29665C3.74494 14.2848 9.76807 19.7768 17.8681 23.1716C18.3871 23.3712 18.9066 23.3712 19.1142 23.471C20.9835 23.471 23.1642 21.7734 23.7875 20.0762C24.4107 18.4784 23.1642 17.7798 22.1257 16.9809Z"
                fill="#1E2B4C"/>
            <path
                d="M12.9868 1.20347C13.936 1.34758 14.7964 1.54346 15.5899 1.78551C15.7243 1.82655 15.865 1.86339 15.9949 1.90723C16.0415 1.92309 16.0837 1.94221 16.1298 1.95853C16.9703 2.25328 17.7236 2.6096 18.3862 3.04146C20.7163 4.55952 21.9817 6.97023 22.4362 10.5898C22.4362 11.1886 22.2286 11.9875 23.0594 11.9875C23.0594 11.9875 23.0594 11.9875 23.0599 11.9875C23.8908 11.9875 23.6832 11.1886 23.6832 10.6896C23.7414 7.6003 22.1898 4.66912 19.8044 2.65996C18.3765 1.45764 16.6497 0.587383 14.7911 0.209617C14.5796 0.16671 14.3667 0.128001 14.1523 0.0976863C13.8021 0.0487167 13.448 0.0174694 13.0911 0.00534358C13.0396 0.0179358 12.98 0.0225996 12.915 0.0225996C12.7569 0.0230659 12.5721 -0.00258484 12.396 0.000213428C12.0541 -0.000252949 11.7431 0.0855605 11.7412 0.599975C11.7412 0.601374 11.7407 0.602773 11.7402 0.604639C11.7407 1.20347 12.4678 1.10366 12.9868 1.20347Z"
                fill="#1E2B4C"/>
            <path
                d="M14.0262 2.90018C13.5073 2.80038 12.6764 2.5005 12.5726 3.2994C12.4688 4.09831 13.2992 3.9985 13.8186 4.09831C17.5568 4.89721 18.8028 6.19514 19.4261 9.69017C19.5299 10.1892 19.3223 10.9881 20.257 10.8883C20.9836 10.7885 20.6722 10.0894 20.776 9.69017C20.776 6.29541 17.7644 3.29987 14.0262 2.90018Z"
                fill="#1E2B4C"/>
            <path
                d="M14.337 5.69534C13.9213 5.69534 13.5061 5.69534 13.4023 6.09456C13.1947 6.69386 13.7142 6.79366 14.1294 6.89347C15.6868 7.09354 16.5177 7.89198 16.6215 9.38999C16.7253 9.78967 16.9334 10.0891 17.3486 10.0891C17.9718 9.98928 17.9718 9.48979 17.9718 9.09057C17.9718 7.39343 16.1025 5.59601 14.337 5.69534Z"
                fill="#1E2B4C"/>
        </g>
        <defs>
            <clipPath id="clip0_404_492">
                <rect width="24" height="24" fill="white"/>
            </clipPath>
        </defs>
    </symbol>
    <symbol id="facebook" viewBox="0 0 24 24" fill="none">
        <path
            d="M10.0252 1.23615C10.9951 0.3452 12.3682 0.0423738 13.6695 0.00730583C15.0429 -0.0043835 16.4163 0.00146117 17.7894 0.00146117C17.7954 1.40491 17.7954 2.80251 17.7894 4.20596C16.9041 4.20596 16.0124 4.20596 15.1272 4.20596C14.5668 4.1709 13.9887 4.58441 13.8863 5.12613C13.8743 6.06384 13.8803 7.00117 13.8803 7.93888C15.1812 7.94472 16.4825 7.93888 17.7834 7.94472C17.687 9.30141 17.5124 10.6526 17.3077 11.9921C16.1571 12.0038 15.0066 11.9921 13.8561 11.998C13.844 15.9987 13.8622 19.9935 13.8501 23.9945C12.1392 24.0004 10.4348 23.9887 8.72396 24.0004C8.69373 19.9997 8.72396 15.999 8.70582 11.998C7.87458 11.9921 7.0373 12.0038 6.20605 11.9921C6.2121 10.6468 6.20605 9.30178 6.20605 7.96225C7.0373 7.95057 7.87458 7.96225 8.70582 7.95641C8.73 6.65195 8.68164 5.34165 8.73 4.0372C8.82068 2.99502 9.22421 1.95248 10.0252 1.23615Z"
            fill="#1E2B4C"/>
    </symbol>
</svg>
