<svg version="1.1" xmlns="http://www.w3.org/2000/svg">
    <symbol id="logo" viewBox="0 0 100 66">
        <path
                d="M13.904 39V29.416H10.176V27.72H19.696V29.416H15.968V39H13.904ZM21.1543 39V27.72H23.2183V39H21.1543ZM29.7238 33.352C29.7238 32.168 29.9371 31.144 30.3638 30.28C30.8011 29.416 31.4251 28.7493 32.2358 28.28C33.0464 27.8 34.0118 27.56 35.1318 27.56C36.2411 27.56 37.2011 27.8 38.0118 28.28C38.8224 28.7493 39.4464 29.416 39.8838 30.28C40.3318 31.144 40.5558 32.1627 40.5558 33.336C40.5558 34.52 40.3318 35.5493 39.8838 36.424C39.4464 37.288 38.8224 37.96 38.0118 38.44C37.2011 38.92 36.2411 39.16 35.1318 39.16C34.0118 39.16 33.0464 38.92 32.2358 38.44C31.4358 37.96 30.8171 37.288 30.3798 36.424C29.9424 35.5493 29.7238 34.5253 29.7238 33.352ZM31.8838 33.352C31.8838 34.6213 32.1558 35.6133 32.6998 36.328C33.2438 37.0427 34.0544 37.4 35.1318 37.4C36.1771 37.4 36.9824 37.0427 37.5478 36.328C38.1131 35.6133 38.3958 34.6213 38.3958 33.352C38.3958 32.072 38.1131 31.08 37.5478 30.376C36.9931 29.672 36.1878 29.32 35.1318 29.32C34.0544 29.32 33.2438 29.672 32.6998 30.376C32.1558 31.08 31.8838 32.072 31.8838 33.352ZM42.5095 39V32.984C42.5095 32.6427 42.4988 32.296 42.4775 31.944C42.4668 31.592 42.4402 31.2507 42.3975 30.92H44.3335L44.5575 33.128H44.2375C44.3442 32.5947 44.5202 32.152 44.7655 31.8C45.0215 31.448 45.3308 31.1867 45.6935 31.016C46.0562 30.8453 46.4508 30.76 46.8775 30.76C47.0695 30.76 47.2242 30.7707 47.3415 30.792C47.4588 30.8027 47.5762 30.8293 47.6935 30.872L47.6775 32.632C47.4748 32.5467 47.2988 32.4933 47.1495 32.472C47.0108 32.4507 46.8348 32.44 46.6215 32.44C46.1628 32.44 45.7735 32.536 45.4535 32.728C45.1442 32.92 44.9095 33.1867 44.7495 33.528C44.6002 33.8693 44.5255 34.2587 44.5255 34.696V39H42.5095ZM52.4258 42.584C51.6791 42.584 51.0018 42.504 50.3938 42.344C49.7964 42.184 49.2631 41.9387 48.7938 41.608L49.2258 40.168C49.5351 40.3707 49.8551 40.536 50.1858 40.664C50.5164 40.792 50.8578 40.888 51.2098 40.952C51.5618 41.016 51.9191 41.048 52.2818 41.048C53.0284 41.048 53.5831 40.8613 53.9458 40.488C54.3191 40.1253 54.5058 39.6027 54.5058 38.92V36.984H54.6658C54.4951 37.5387 54.1484 37.9813 53.6258 38.312C53.1138 38.6427 52.5218 38.808 51.8498 38.808C51.1244 38.808 50.4898 38.648 49.9457 38.328C49.4124 37.9973 48.9964 37.528 48.6978 36.92C48.3991 36.312 48.2498 35.5973 48.2498 34.776C48.2498 33.9547 48.3991 33.2453 48.6978 32.648C48.9964 32.04 49.4124 31.576 49.9457 31.256C50.4898 30.9253 51.1244 30.76 51.8498 30.76C52.5324 30.76 53.1244 30.9253 53.6258 31.256C54.1378 31.576 54.4791 32.0133 54.6498 32.568L54.5058 32.472L54.6658 30.92H56.6018C56.5591 31.2507 56.5271 31.5867 56.5058 31.928C56.4844 32.2693 56.4738 32.6053 56.4738 32.936V38.68C56.4738 39.9493 56.1271 40.9147 55.4338 41.576C54.7511 42.248 53.7484 42.584 52.4258 42.584ZM52.3938 37.272C53.0338 37.272 53.5404 37.0587 53.9138 36.632C54.2978 36.1947 54.4898 35.576 54.4898 34.776C54.4898 33.976 54.2978 33.3627 53.9138 32.936C53.5404 32.5093 53.0338 32.296 52.3938 32.296C51.7431 32.296 51.2258 32.5093 50.8418 32.936C50.4578 33.3627 50.2658 33.976 50.2658 34.776C50.2658 35.576 50.4578 36.1947 50.8418 36.632C51.2258 37.0587 51.7431 37.272 52.3938 37.272ZM61.7549 39.16C61.0509 39.16 60.4322 38.9947 59.8989 38.664C59.3655 38.3227 58.9495 37.8373 58.6509 37.208C58.3522 36.5787 58.2029 35.8267 58.2029 34.952C58.2029 34.0773 58.3522 33.3307 58.6509 32.712C58.9495 32.0827 59.3655 31.6027 59.8989 31.272C60.4322 30.9307 61.0509 30.76 61.7549 30.76C62.4375 30.76 63.0349 30.9307 63.5469 31.272C64.0695 31.6027 64.4162 32.0507 64.5869 32.616H64.4109L64.5869 30.92H66.5069C66.4749 31.2507 66.4429 31.5867 66.4109 31.928C66.3895 32.2693 66.3789 32.6053 66.3789 32.936V39H64.3949L64.3789 37.336H64.5709C64.4002 37.8907 64.0535 38.3333 63.5309 38.664C63.0082 38.9947 62.4162 39.16 61.7549 39.16ZM62.3149 37.624C62.9442 37.624 63.4509 37.4053 63.8349 36.968C64.2189 36.52 64.4109 35.848 64.4109 34.952C64.4109 34.056 64.2189 33.3893 63.8349 32.952C63.4509 32.5147 62.9442 32.296 62.3149 32.296C61.6855 32.296 61.1789 32.5147 60.7949 32.952C60.4109 33.3893 60.2189 34.056 60.2189 34.952C60.2189 35.848 60.4055 36.52 60.7789 36.968C61.1629 37.4053 61.6749 37.624 62.3149 37.624ZM68.5568 39V32.936C68.5568 32.6053 68.5461 32.2693 68.5247 31.928C68.5034 31.5867 68.4714 31.2507 68.4288 30.92H70.3648L70.5248 32.52H70.3328C70.5888 31.9547 70.9674 31.5227 71.4688 31.224C71.9701 30.9147 72.5514 30.76 73.2128 30.76C74.1621 30.76 74.8768 31.0267 75.3568 31.56C75.8368 32.0933 76.0768 32.9253 76.0768 34.056V39H74.0768V34.152C74.0768 33.5013 73.9488 33.0373 73.6928 32.76C73.4474 32.472 73.0741 32.328 72.5728 32.328C71.9541 32.328 71.4634 32.52 71.1008 32.904C70.7381 33.288 70.5568 33.8 70.5568 34.44V39H68.5568ZM78.1974 39V30.92H80.1974V39H78.1974ZM78.0854 29.4V27.448H80.3094V29.4H78.0854ZM86.0813 39.16C85.2493 39.16 84.5186 38.9893 83.8893 38.648C83.2706 38.3067 82.7906 37.8213 82.4493 37.192C82.1079 36.552 81.9373 35.7947 81.9373 34.92C81.9373 34.0453 82.1079 33.2987 82.4493 32.68C82.8013 32.0613 83.2866 31.5867 83.9053 31.256C84.5239 30.9253 85.2493 30.76 86.0813 30.76C86.6146 30.76 87.1319 30.8453 87.6333 31.016C88.1453 31.176 88.5613 31.4107 88.8813 31.72L88.2733 33.112C87.9853 32.8453 87.6599 32.648 87.2973 32.52C86.9453 32.3813 86.5986 32.312 86.2573 32.312C85.5426 32.312 84.9826 32.536 84.5773 32.984C84.1826 33.432 83.9853 34.0827 83.9853 34.936C83.9853 35.7893 84.1826 36.4453 84.5773 36.904C84.9826 37.3627 85.5426 37.592 86.2573 37.592C86.5879 37.592 86.9293 37.528 87.2813 37.4C87.6439 37.272 87.9746 37.0747 88.2733 36.808L88.8813 38.184C88.5506 38.4933 88.1293 38.7333 87.6173 38.904C87.1159 39.0747 86.6039 39.16 86.0813 39.16Z"
                fill="#003C44"/>
        <path
                d="M0 0H100H0ZM100 66H0H100ZM0 66V0V66ZM75 0C90.464 0 103 12.536 103 28V38C103 53.464 90.464 66 75 66C87.1503 66 97 54.8071 97 41V25C97 11.1929 87.1503 0 75 0Z"
                fill="#003C44" mask="url(#path-1-inside-1_11_162)"/>
    </symbol>
    <symbol id="heart" viewBox="0 0 24 24">
        <path
                d="M16.5431 3.75C13.5 3.75 12 6.75 12 6.75C12 6.75 10.5 3.75 7.45687 3.75C4.98374 3.75 3.0253 5.81906 2.99999 8.28797C2.94843 13.4128 7.06546 17.0573 11.5781 20.1202C11.7025 20.2048 11.8495 20.2501 12 20.2501C12.1505 20.2501 12.2975 20.2048 12.4219 20.1202C16.9341 17.0573 21.0511 13.4128 21 8.28797C20.9747 5.81906 19.0162 3.75 16.5431 3.75V3.75Z"
                stroke-width="1.5" stroke-linecap="round" stroke-linejoin="round"/>
    </symbol>
    <symbol id="cart" viewBox="0 0 24 24" fill="none">
        <path
                d="M8.25 20.25C8.66421 20.25 9 19.9142 9 19.5C9 19.0858 8.66421 18.75 8.25 18.75C7.83579 18.75 7.5 19.0858 7.5 19.5C7.5 19.9142 7.83579 20.25 8.25 20.25Z"
                stroke="#1E2B4C" stroke-width="1.5" stroke-linecap="round" stroke-linejoin="round"/>
        <path
                d="M18.75 20.25C19.1642 20.25 19.5 19.9142 19.5 19.5C19.5 19.0858 19.1642 18.75 18.75 18.75C18.3358 18.75 18 19.0858 18 19.5C18 19.9142 18.3358 20.25 18.75 20.25Z"
                stroke="#1E2B4C" stroke-width="1.5" stroke-linecap="round" stroke-linejoin="round"/>
        <path d="M2.25 3.75H5.25L7.5 16.5H19.5" stroke="#1E2B4C" stroke-width="1.5" stroke-linecap="round"
              stroke-linejoin="round"/>
        <path
                d="M7.5 13.5H19.1925C19.2792 13.5001 19.3633 13.4701 19.4304 13.4151C19.4975 13.3601 19.5434 13.2836 19.5605 13.1986L20.9105 6.44859C20.9214 6.39417 20.92 6.338 20.9066 6.28414C20.8931 6.23029 20.8679 6.18009 20.8327 6.13717C20.7975 6.09426 20.7532 6.05969 20.703 6.03597C20.6528 6.01225 20.598 5.99996 20.5425 6H6"
                stroke="#1E2B4C" stroke-width="1.5" stroke-linecap="round" stroke-linejoin="round"/>
    </symbol>
    <symbol id="dalacode" viewBox="0 0 89 25" fill="none">
        <g clip-path="url(#clip0_46_215)">
            <path
                    d="M-0.0491943 21.7775V17.4502C-0.0491943 15.1593 1.10312 14.0138 3.40774 14.0138H6.69396V9.51685H9.63875V25.2138H3.40774C1.10312 25.2138 -0.0491943 24.0684 -0.0491943 21.7775ZM2.8956 21.9881C2.8956 22.4416 3.12322 22.6684 3.57845 22.6684H6.69396V16.5608H3.57845C3.12322 16.5608 2.8956 16.786 2.8956 17.2365V21.9881Z"
                    fill="white"/>
            <path
                    d="M15.5714 25.2136C13.2668 25.2136 12.1145 24.0893 12.1145 21.8408C12.1145 19.5923 13.2668 18.4676 15.5714 18.4666H18.5162V17.2363C18.5162 16.7848 18.2886 16.559 17.8334 16.559H13.3095V14.9681L14.5898 14.0135H18.0041C20.3087 14.0135 21.461 15.159 21.461 17.4499V25.2136H15.5714ZM15.0593 21.9878C15.0593 22.4413 15.2869 22.6681 15.7421 22.6681H18.5162V20.7575H15.7421C15.2869 20.7575 15.0593 20.9843 15.0593 21.4378V21.9878Z"
                    fill="white"/>
            <path
                    d="M24.3632 21.1411V9.51685H27.308V21.4381C27.308 22.3138 27.7652 22.7941 28.6798 22.879V25.4259C25.801 25.4259 24.3621 23.9976 24.3632 21.1411Z"
                    fill="white"/>
            <path
                    d="M33.9231 25.2136C31.6184 25.2136 30.4661 24.0893 30.4661 21.8408C30.4661 19.5923 31.6184 18.4676 33.9231 18.4666H36.8678V17.2363C36.8678 16.7817 36.6392 16.559 36.185 16.559H31.6611V14.9681L32.9415 14.0135H36.3557C38.6603 14.0135 39.8126 15.159 39.8126 17.4499V25.2136H33.9231ZM33.4109 21.9878C33.4109 22.4413 33.6385 22.6681 34.0938 22.6681H36.8678V20.7575H34.0938C33.6375 20.7575 33.4099 20.9843 33.4109 21.4378V21.9878Z"
                    fill="white"/>
            <path
                    d="M42.6295 21.7772V17.4499C42.6295 15.159 43.7818 14.0135 46.0865 14.0135H50.0494L51.3298 14.9681V16.5605H46.2572C45.8009 16.5605 45.5733 16.7863 45.5743 17.2378V21.9893C45.5743 22.4428 45.8019 22.6696 46.2572 22.6696H51.3359V24.2605L50.0555 25.2151H46.0926C43.7839 25.2141 42.6295 24.0681 42.6295 21.7772Z"
                    fill="white"/>
            <path
                    d="M53.6816 21.7772V17.4499C53.6816 15.159 54.8339 14.0135 57.1385 14.0135H60.126C62.4306 14.0135 63.5829 15.159 63.5829 17.4499V21.7772C63.5829 24.0681 62.4306 25.2136 60.126 25.2136H57.1385C54.8339 25.2136 53.6816 24.0681 53.6816 21.7772ZM56.6264 21.9878C56.6264 22.4423 56.855 22.6681 57.3092 22.6681H59.9553C60.4105 22.6681 60.6381 22.4413 60.6381 21.9878V17.2363C60.6381 16.7848 60.4105 16.559 59.9553 16.559H57.3108C56.8535 16.559 56.6279 16.7848 56.6279 17.2363L56.6264 21.9878Z"
                    fill="white"/>
            <path
                    d="M66.3143 21.7775V17.4502C66.3143 15.1593 67.4666 14.0138 69.7712 14.0138H73.0574V9.51685H76.0022V25.2138H69.7712C67.4666 25.2138 66.3143 24.0684 66.3143 21.7775ZM69.2591 21.9881C69.2591 22.4426 69.4877 22.6684 69.9419 22.6684H73.0574V16.5608H69.9419C69.4846 16.5608 69.2591 16.7865 69.2591 17.2381V21.9881Z"
                    fill="white"/>
            <path
                    d="M78.9044 21.7772V17.4499C78.9044 15.159 80.0567 14.0135 82.3614 14.0135H85.1354C87.4401 14.0135 88.5924 15.159 88.5924 17.4499V20.7166H81.8507V21.9878C81.8507 22.4423 82.0794 22.6681 82.5336 22.6681H88.1732V24.259L86.8929 25.2136H82.3614C80.0567 25.2136 78.9044 24.0681 78.9044 21.7772ZM81.8507 18.4257H85.6491V17.2363C85.6491 16.7848 85.4215 16.559 84.9662 16.559H82.5275C82.0702 16.559 81.8446 16.7848 81.8446 17.2363L81.8507 18.4257Z"
                    fill="white"/>
            <path
                    d="M0.727844 9.1908V2.6908H3.22452C4.09028 2.6908 4.52315 3.12413 4.52315 3.9908V6.07261C4.52315 6.93928 4.09028 7.37261 3.22452 7.37261H1.13938V9.1908H0.727844ZM1.13938 7.01504H3.2611C3.83014 7.01504 4.11466 6.7312 4.11466 6.16352V3.89989C4.11466 3.33625 3.83116 3.05443 3.26415 3.05443H1.13938V7.01504Z"
                    fill="white"/>
            <path
                    d="M5.93225 6.07269V3.98481C5.93225 3.11815 6.36818 2.68481 7.24003 2.68481H8.52038C9.38614 2.68481 9.81902 3.11815 9.81902 3.98481V6.07269C9.81902 6.93936 9.38614 7.37269 8.52038 7.37269H7.24003C6.36818 7.37269 5.93225 6.93936 5.93225 6.07269ZM6.34379 6.1636C6.34379 6.73128 6.6273 7.01512 7.19431 7.01512H8.55696C9.12397 7.01512 9.40748 6.7333 9.40748 6.16966V3.89997C9.40748 3.33633 9.12397 3.05451 8.55696 3.05451H7.19431C6.6273 3.05451 6.34379 3.33633 6.34379 3.89997V6.1636Z"
                    fill="white"/>
            <path
                    d="M10.7518 2.78171L10.8158 2.6908H11.1451L12.2608 7.01504H12.4254L13.7515 2.69686H14.2453L15.5714 7.01504H15.7452L16.8609 2.69686H17.181L17.245 2.78777L16.047 7.37867H15.2971L13.9984 3.11807L12.6998 7.37261H11.959L10.7518 2.78171Z"
                    fill="white"/>
            <path
                    d="M18.1779 6.07269V3.98481C18.1779 3.11815 18.6138 2.68481 19.4856 2.68481H20.6745C21.5403 2.68481 21.9732 3.11815 21.9732 3.98481V5.19693H18.5955V6.16057C18.5955 6.73027 18.877 7.01512 19.4399 7.01512H21.7964V7.18178L21.5403 7.37269H19.4856C18.6138 7.37269 18.1779 6.93936 18.1779 6.07269ZM18.5894 4.83633H21.5616V3.89997C21.5616 3.33633 21.2781 3.05451 20.7111 3.05451H19.4399C18.8729 3.05451 18.5894 3.33633 18.5894 3.89997V4.83633Z"
                    fill="white"/>
            <path
                    d="M23.4182 7.37261V3.1908C23.6214 2.85746 23.9963 2.6908 24.543 2.6908H25.4118L25.6679 2.88171V3.05443H24.4973C24.3747 3.04362 24.2512 3.06003 24.1357 3.10248C24.0202 3.14493 23.9157 3.21236 23.8297 3.29989V7.37261H23.4182Z"
                    fill="white"/>
            <path
                    d="M26.6099 6.07269V3.98481C26.6099 3.11815 27.0458 2.68481 27.9176 2.68481H29.1126C29.9784 2.68481 30.4113 3.11815 30.4113 3.98481V5.19693H27.0275V6.16057C27.0275 6.72421 27.311 7.00602 27.878 7.00602H30.2284V7.18178L29.9723 7.37269H27.9176C27.0458 7.37269 26.6099 6.93936 26.6099 6.07269ZM27.0214 4.83633H29.9936V3.89997C29.9936 3.33633 29.7101 3.05451 29.1431 3.05451H27.8719C27.3049 3.05451 27.0214 3.33633 27.0214 3.89997V4.83633Z"
                    fill="white"/>
            <path
                    d="M31.8135 6.0727V3.98482C31.8135 3.11816 32.2495 2.68482 33.1213 2.68482H35.1973V0.651489H35.6088V7.37876H33.1213C32.2495 7.37472 31.8135 6.93937 31.8135 6.0727ZM32.2251 6.16361C32.2251 6.73129 32.5086 7.01513 33.0756 7.01513H35.1973V3.05452H33.0756C32.5086 3.05452 32.2251 3.33634 32.2251 3.89998V6.16361Z"
                    fill="white"/>
            <path
                    d="M39.3585 7.3727V0.651489H39.7701V2.69694H41.8552C42.721 2.69694 43.1538 3.13028 43.1538 3.99694V6.0727C43.1538 6.93937 42.721 7.3727 41.8552 7.3727H39.3585ZM39.7701 7.00906H41.8918C42.4588 7.00906 42.7423 6.72725 42.7423 6.16361V3.89997C42.7423 3.33634 42.4588 3.05452 41.8918 3.05452H39.7701V7.00906Z"
                    fill="white"/>
            <path
                    d="M44.05 2.78171L44.1049 2.6908H44.4615L46.0162 7.01504H46.254L47.8087 2.69686H48.1654L48.2203 2.78777L45.8608 9.19686H45.5041L45.4492 9.10595L46.1077 7.37868H45.7419L44.05 2.78171Z"
                    fill="white"/>
        </g>
        <defs>
            <clipPath id="clip0_46_215">
                <rect width="88.7097" height="25" fill="white" transform="translate(0 0.5)"/>
            </clipPath>
        </defs>
    </symbol>
    <symbol id="hamburger" viewBox="0 0 52 52" fill="none">
        <rect x="1" y="1" width="50" height="50" rx="3" fill="white"/>
        <path d="M17.75 21.5H34.25M17.75 26H34.25M17.75 30.5H34.25" stroke="#F4BC50" stroke-width="1.5"
              stroke-miterlimit="10" stroke-linecap="round"/>
        <rect x="1" y="1" width="50" height="50" rx="3" stroke="#F4BC50" stroke-width="2"/>
    </symbol>
    <symbol id="arrow-hamburger" viewBox="0 0 12 22" fill="none">
        <path d="M1.5 20L10.5 11L1.5 2" stroke="#1E2B4C" stroke-width="3" stroke-linecap="round"
              stroke-linejoin="round"/>
    </symbol>
    <symbol id="bag" viewBox="0 0 24 24" fill="none">
        <path
                d="M7.5 8.25V6.75C7.5 5.55653 7.97411 4.41193 8.81802 3.56802C9.66193 2.72411 10.8065 2.25 12 2.25V2.25C13.1935 2.25 14.3381 2.72411 15.182 3.56802C16.0259 4.41193 16.5 5.55653 16.5 6.75V8.25M3.75 8.25C3.55109 8.25 3.36032 8.32902 3.21967 8.46967C3.07902 8.61032 3 8.80109 3 9V19.125C3 20.5425 4.2075 21.75 5.625 21.75H18.375C19.7925 21.75 21 20.6011 21 19.1836V9C21 8.80109 20.921 8.61032 20.7803 8.46967C20.6397 8.32902 20.4489 8.25 20.25 8.25H3.75Z"
                stroke="white" stroke-width="1.5" stroke-linecap="round" stroke-linejoin="round"/>
        <path
                d="M7.5 10.5V11.25C7.5 12.4435 7.97411 13.5881 8.81802 14.432C9.66193 15.2759 10.8065 15.75 12 15.75C13.1935 15.75 14.3381 15.2759 15.182 14.432C16.0259 13.5881 16.5 12.4435 16.5 11.25V10.5"
                stroke="white" stroke-width="1.5" stroke-linecap="round" stroke-linejoin="round"/>
    </symbol>
    <symbol id="arrow-next" viewBox="0 0 20 20" fill="none">
        <path d="M10.4688 4.375L16.0938 10L10.4688 15.625M15.3125 10H3.90625" stroke-width="1.875"
              stroke-linecap="round" stroke-linejoin="round"/>
    </symbol>
    <symbol id="arrow-prev" viewBox="0 0 20 20" fill="none">
        <path d="M9.53125 15.625L3.90625 10L9.53125 4.375M4.6875 10L16.0938 10" stroke-width="1.875"
              stroke-linecap="round" stroke-linejoin="round"/>
    </symbol>
    <symbol id="product-element" viewBox="0 0 88 80" fill="none">
        <path
                d="M46.1563 0H84C86.2091 0 88 1.79086 88 4L88 80C88 80 8.59331 57.8616 0.783105 35.2201C-7.0271 12.5786 46.1563 0 46.1563 0Z"
                fill="#F4BC50" fill-opacity="0.15"/>
    </symbol>
    <symbol id="add-outline" viewBox="0 0 20 20">
        <path d="M10 4.375V15.625M15.625 10H4.375" stroke="#1E2B4C" stroke-width="1.25" stroke-linecap="round"
              stroke-linejoin="round"/>
    </symbol>
    <symbol id="favorite" viewBox="0 0 40 40" >
        <path d="M27.5719 6.25C22.5 6.25 20 11.25
        20 11.25C20 11.25 17.5 6.25 12.4281 6.25C8.30625
        6.25 5.04219 9.69844 5 13.8133C4.91406 22.3547 11.7758 28.4289
        19.2969 33.5336C19.5042 33.6747 19.7492 33.7501 20 33.7501C20.2508 33.7501
        20.4958 33.6747 20.7031 33.5336C28.2234 28.4289 35.0852 22.3547 35 13.8133C34.9578
        9.69844 31.6937 6.25 27.5719 6.25V6.25Z"  stroke-width="1.5" stroke-linecap="round" stroke-linejoin="round"/>
    </symbol>
    <symbol id="arrow-count" viewBox="0 0 24 24" fill="none">
        <path d="M5.25 8.625L12 15.375L18.75 8.625" stroke="white" stroke-width="2.25" stroke-linecap="round" stroke-linejoin="round"/>
    </symbol>
    <symbol id="plus" viewBox="0 0 24 24" fill="none">
        <path d="M12 5.25V18.75M18.75 12H5.25" stroke="black" stroke-width="1.5" stroke-linecap="round" stroke-linejoin="round"/>
    </symbol>
    <symbol id="close" viewBox="0 0 40 40" fill="none">
        <path d="M12.045 28.2047L27.9549 12.2948M12.2218 12.4716L27.7782 28.028" stroke="black" stroke-width="2.5" stroke-linecap="round" stroke-linejoin="round"/>
    </symbol>
    <symbol id="line" viewBox="0 0 24 24" fill="none">
        <path d="M5 12H18.5" stroke="#FFFBF0" stroke-width="2" stroke-linecap="round" stroke-linejoin="round"/>
    </symbol>
</svg>
