<svg width="89" height="26" viewBox="0 0 89 26" fill="none" xmlns="http://www.w3.org/2000/svg">
<g clip-path="url(#clip0_46_215)">
<path d="M-0.0491943 21.7775V17.4502C-0.0491943 15.1593 1.10312 14.0138 3.40774 14.0138H6.69396V9.51685H9.63875V25.2138H3.40774C1.10312 25.2138 -0.0491943 24.0684 -0.0491943 21.7775ZM2.8956 21.9881C2.8956 22.4416 3.12322 22.6684 3.57845 22.6684H6.69396V16.5608H3.57845C3.12322 16.5608 2.8956 16.786 2.8956 17.2365V21.9881Z" fill="white"/>
<path d="M15.5714 25.2136C13.2668 25.2136 12.1145 24.0893 12.1145 21.8408C12.1145 19.5923 13.2668 18.4676 15.5714 18.4666H18.5162V17.2363C18.5162 16.7848 18.2886 16.559 17.8334 16.559H13.3095V14.9681L14.5898 14.0135H18.0041C20.3087 14.0135 21.461 15.159 21.461 17.4499V25.2136H15.5714ZM15.0593 21.9878C15.0593 22.4413 15.2869 22.6681 15.7421 22.6681H18.5162V20.7575H15.7421C15.2869 20.7575 15.0593 20.9843 15.0593 21.4378V21.9878Z" fill="white"/>
<path d="M24.3632 21.1411V9.51685H27.308V21.4381C27.308 22.3138 27.7652 22.7941 28.6798 22.879V25.4259C25.801 25.4259 24.3621 23.9976 24.3632 21.1411Z" fill="white"/>
<path d="M33.9231 25.2136C31.6184 25.2136 30.4661 24.0893 30.4661 21.8408C30.4661 19.5923 31.6184 18.4676 33.9231 18.4666H36.8678V17.2363C36.8678 16.7817 36.6392 16.559 36.185 16.559H31.6611V14.9681L32.9415 14.0135H36.3557C38.6603 14.0135 39.8126 15.159 39.8126 17.4499V25.2136H33.9231ZM33.4109 21.9878C33.4109 22.4413 33.6385 22.6681 34.0938 22.6681H36.8678V20.7575H34.0938C33.6375 20.7575 33.4099 20.9843 33.4109 21.4378V21.9878Z" fill="white"/>
<path d="M42.6295 21.7772V17.4499C42.6295 15.159 43.7818 14.0135 46.0865 14.0135H50.0494L51.3298 14.9681V16.5605H46.2572C45.8009 16.5605 45.5733 16.7863 45.5743 17.2378V21.9893C45.5743 22.4428 45.8019 22.6696 46.2572 22.6696H51.3359V24.2605L50.0555 25.2151H46.0926C43.7839 25.2141 42.6295 24.0681 42.6295 21.7772Z" fill="white"/>
<path d="M53.6816 21.7772V17.4499C53.6816 15.159 54.8339 14.0135 57.1385 14.0135H60.126C62.4306 14.0135 63.5829 15.159 63.5829 17.4499V21.7772C63.5829 24.0681 62.4306 25.2136 60.126 25.2136H57.1385C54.8339 25.2136 53.6816 24.0681 53.6816 21.7772ZM56.6264 21.9878C56.6264 22.4423 56.855 22.6681 57.3092 22.6681H59.9553C60.4105 22.6681 60.6381 22.4413 60.6381 21.9878V17.2363C60.6381 16.7848 60.4105 16.559 59.9553 16.559H57.3108C56.8535 16.559 56.6279 16.7848 56.6279 17.2363L56.6264 21.9878Z" fill="white"/>
<path d="M66.3143 21.7775V17.4502C66.3143 15.1593 67.4666 14.0138 69.7712 14.0138H73.0574V9.51685H76.0022V25.2138H69.7712C67.4666 25.2138 66.3143 24.0684 66.3143 21.7775ZM69.2591 21.9881C69.2591 22.4426 69.4877 22.6684 69.9419 22.6684H73.0574V16.5608H69.9419C69.4846 16.5608 69.2591 16.7865 69.2591 17.2381V21.9881Z" fill="white"/>
<path d="M78.9044 21.7772V17.4499C78.9044 15.159 80.0567 14.0135 82.3614 14.0135H85.1354C87.4401 14.0135 88.5924 15.159 88.5924 17.4499V20.7166H81.8507V21.9878C81.8507 22.4423 82.0794 22.6681 82.5336 22.6681H88.1732V24.259L86.8929 25.2136H82.3614C80.0567 25.2136 78.9044 24.0681 78.9044 21.7772ZM81.8507 18.4257H85.6491V17.2363C85.6491 16.7848 85.4215 16.559 84.9662 16.559H82.5275C82.0702 16.559 81.8446 16.7848 81.8446 17.2363L81.8507 18.4257Z" fill="white"/>
<path d="M0.727844 9.1908V2.6908H3.22452C4.09028 2.6908 4.52315 3.12413 4.52315 3.9908V6.07261C4.52315 6.93928 4.09028 7.37261 3.22452 7.37261H1.13938V9.1908H0.727844ZM1.13938 7.01504H3.2611C3.83014 7.01504 4.11466 6.7312 4.11466 6.16352V3.89989C4.11466 3.33625 3.83116 3.05443 3.26415 3.05443H1.13938V7.01504Z" fill="white"/>
<path d="M5.93225 6.07269V3.98481C5.93225 3.11815 6.36818 2.68481 7.24003 2.68481H8.52038C9.38614 2.68481 9.81902 3.11815 9.81902 3.98481V6.07269C9.81902 6.93936 9.38614 7.37269 8.52038 7.37269H7.24003C6.36818 7.37269 5.93225 6.93936 5.93225 6.07269ZM6.34379 6.1636C6.34379 6.73128 6.6273 7.01512 7.19431 7.01512H8.55696C9.12397 7.01512 9.40748 6.7333 9.40748 6.16966V3.89997C9.40748 3.33633 9.12397 3.05451 8.55696 3.05451H7.19431C6.6273 3.05451 6.34379 3.33633 6.34379 3.89997V6.1636Z" fill="white"/>
<path d="M10.7518 2.78171L10.8158 2.6908H11.1451L12.2608 7.01504H12.4254L13.7515 2.69686H14.2453L15.5714 7.01504H15.7452L16.8609 2.69686H17.181L17.245 2.78777L16.047 7.37867H15.2971L13.9984 3.11807L12.6998 7.37261H11.959L10.7518 2.78171Z" fill="white"/>
<path d="M18.1779 6.07269V3.98481C18.1779 3.11815 18.6138 2.68481 19.4856 2.68481H20.6745C21.5403 2.68481 21.9732 3.11815 21.9732 3.98481V5.19693H18.5955V6.16057C18.5955 6.73027 18.877 7.01512 19.4399 7.01512H21.7964V7.18178L21.5403 7.37269H19.4856C18.6138 7.37269 18.1779 6.93936 18.1779 6.07269ZM18.5894 4.83633H21.5616V3.89997C21.5616 3.33633 21.2781 3.05451 20.7111 3.05451H19.4399C18.8729 3.05451 18.5894 3.33633 18.5894 3.89997V4.83633Z" fill="white"/>
<path d="M23.4182 7.37261V3.1908C23.6214 2.85746 23.9963 2.6908 24.543 2.6908H25.4118L25.6679 2.88171V3.05443H24.4973C24.3747 3.04362 24.2512 3.06003 24.1357 3.10248C24.0202 3.14493 23.9157 3.21236 23.8297 3.29989V7.37261H23.4182Z" fill="white"/>
<path d="M26.6099 6.07269V3.98481C26.6099 3.11815 27.0458 2.68481 27.9176 2.68481H29.1126C29.9784 2.68481 30.4113 3.11815 30.4113 3.98481V5.19693H27.0275V6.16057C27.0275 6.72421 27.311 7.00602 27.878 7.00602H30.2284V7.18178L29.9723 7.37269H27.9176C27.0458 7.37269 26.6099 6.93936 26.6099 6.07269ZM27.0214 4.83633H29.9936V3.89997C29.9936 3.33633 29.7101 3.05451 29.1431 3.05451H27.8719C27.3049 3.05451 27.0214 3.33633 27.0214 3.89997V4.83633Z" fill="white"/>
<path d="M31.8135 6.0727V3.98482C31.8135 3.11816 32.2495 2.68482 33.1213 2.68482H35.1973V0.651489H35.6088V7.37876H33.1213C32.2495 7.37472 31.8135 6.93937 31.8135 6.0727ZM32.2251 6.16361C32.2251 6.73129 32.5086 7.01513 33.0756 7.01513H35.1973V3.05452H33.0756C32.5086 3.05452 32.2251 3.33634 32.2251 3.89998V6.16361Z" fill="white"/>
<path d="M39.3585 7.3727V0.651489H39.7701V2.69694H41.8552C42.721 2.69694 43.1538 3.13028 43.1538 3.99694V6.0727C43.1538 6.93937 42.721 7.3727 41.8552 7.3727H39.3585ZM39.7701 7.00906H41.8918C42.4588 7.00906 42.7423 6.72725 42.7423 6.16361V3.89997C42.7423 3.33634 42.4588 3.05452 41.8918 3.05452H39.7701V7.00906Z" fill="white"/>
<path d="M44.05 2.78171L44.1049 2.6908H44.4615L46.0162 7.01504H46.254L47.8087 2.69686H48.1654L48.2203 2.78777L45.8608 9.19686H45.5041L45.4492 9.10595L46.1077 7.37868H45.7419L44.05 2.78171Z" fill="white"/>
</g>
<defs>
<clipPath id="clip0_46_215">
<rect width="88.7097" height="25" fill="white" transform="translate(0 0.5)"/>
</clipPath>
</defs>
</svg>
