<svg width="24" height="24" viewBox="0 0 24 24" fill="none" xmlns="http://www.w3.org/2000/svg">
<path d="M10.0252 1.23615C10.9951 0.3452 12.3682 0.0423738 13.6695 0.00730583C15.0429 -0.0043835 16.4163 0.00146117 17.7894 0.00146117C17.7954 1.40491 17.7954 2.80251 17.7894 4.20596C16.9041 4.20596 16.0124 4.20596 15.1272 4.20596C14.5668 4.1709 13.9887 4.58441 13.8863 5.12613C13.8743 6.06384 13.8803 7.00117 13.8803 7.93888C15.1812 7.94472 16.4825 7.93888 17.7834 7.94472C17.687 9.30141 17.5124 10.6526 17.3077 11.9921C16.1571 12.0038 15.0066 11.9921 13.8561 11.998C13.844 15.9987 13.8622 19.9935 13.8501 23.9945C12.1392 24.0004 10.4348 23.9887 8.72396 24.0004C8.69373 19.9997 8.72396 15.999 8.70582 11.998C7.87458 11.9921 7.0373 12.0038 6.20605 11.9921C6.2121 10.6468 6.20605 9.30178 6.20605 7.96225C7.0373 7.95057 7.87458 7.96225 8.70582 7.95641C8.73 6.65195 8.68164 5.34165 8.73 4.0372C8.82068 2.99502 9.22421 1.95248 10.0252 1.23615Z" fill="#1E2B4C"/>
</svg>
