<svg width="24" height="24" viewBox="0 0 24 24" fill="none" xmlns="http://www.w3.org/2000/svg">
<g clip-path="url(#clip0_404_492)">
<path d="M22.1257 16.9809C21.3987 16.3816 20.5683 15.8826 19.8412 15.3831C18.2833 14.2848 16.8297 14.2848 15.6874 15.9824C15.0641 16.9809 14.1295 16.9809 13.1953 16.5817C10.5989 15.3836 8.52203 13.6859 7.27598 11.0896C6.75651 9.9913 6.75651 8.89298 8.00304 8.09407C8.62631 7.69485 9.35289 7.19536 9.24909 6.19685C9.14529 4.99872 6.13372 0.904862 4.88768 0.505176C4.36821 0.305566 3.84922 0.305566 3.32975 0.505176C0.525776 1.40389 -0.720273 3.70033 0.421979 6.29665C3.74494 14.2848 9.76807 19.7768 17.8681 23.1716C18.3871 23.3712 18.9066 23.3712 19.1142 23.471C20.9835 23.471 23.1642 21.7734 23.7875 20.0762C24.4107 18.4784 23.1642 17.7798 22.1257 16.9809Z" fill="#1E2B4C"/>
<path d="M12.9868 1.20347C13.936 1.34758 14.7964 1.54346 15.5899 1.78551C15.7243 1.82655 15.865 1.86339 15.9949 1.90723C16.0415 1.92309 16.0837 1.94221 16.1298 1.95853C16.9703 2.25328 17.7236 2.6096 18.3862 3.04146C20.7163 4.55952 21.9817 6.97023 22.4362 10.5898C22.4362 11.1886 22.2286 11.9875 23.0594 11.9875C23.0594 11.9875 23.0594 11.9875 23.0599 11.9875C23.8908 11.9875 23.6832 11.1886 23.6832 10.6896C23.7414 7.6003 22.1898 4.66912 19.8044 2.65996C18.3765 1.45764 16.6497 0.587383 14.7911 0.209617C14.5796 0.16671 14.3667 0.128001 14.1523 0.0976863C13.8021 0.0487167 13.448 0.0174694 13.0911 0.00534358C13.0396 0.0179358 12.98 0.0225996 12.915 0.0225996C12.7569 0.0230659 12.5721 -0.00258484 12.396 0.000213428C12.0541 -0.000252949 11.7431 0.0855605 11.7412 0.599975C11.7412 0.601374 11.7407 0.602773 11.7402 0.604639C11.7407 1.20347 12.4678 1.10366 12.9868 1.20347Z" fill="#1E2B4C"/>
<path d="M14.0262 2.90018C13.5073 2.80038 12.6764 2.5005 12.5726 3.2994C12.4688 4.09831 13.2992 3.9985 13.8186 4.09831C17.5568 4.89721 18.8028 6.19514 19.4261 9.69017C19.5299 10.1892 19.3223 10.9881 20.257 10.8883C20.9836 10.7885 20.6722 10.0894 20.776 9.69017C20.776 6.29541 17.7644 3.29987 14.0262 2.90018Z" fill="#1E2B4C"/>
<path d="M14.337 5.69534C13.9213 5.69534 13.5061 5.69534 13.4023 6.09456C13.1947 6.69386 13.7142 6.79366 14.1294 6.89347C15.6868 7.09354 16.5177 7.89198 16.6215 9.38999C16.7253 9.78967 16.9334 10.0891 17.3486 10.0891C17.9718 9.98928 17.9718 9.48979 17.9718 9.09057C17.9718 7.39343 16.1025 5.59601 14.337 5.69534Z" fill="#1E2B4C"/>
</g>
<defs>
<clipPath id="clip0_404_492">
<rect width="24" height="24" fill="white"/>
</clipPath>
</defs>
</svg>
